<svg xmlns="http://www.w3.org/2000/svg" width="18.003" height="18.002" viewBox="0 0 18.003 18.002">
  <path id="Shape_15_copy_5" data-name="Shape 15 copy 5" d="M647,1945a9,9,0,1,0,9,9A9,9,0,0,0,647,1945Zm4.66,8.32-4.08,4.08c-.784.785-1.855.983-2.394.444-.007-.007-.011-.017-.018-.024a1.2,1.2,0,0,1-.346-.23l-2.467-2.468a1.214,1.214,0,1,1,1.716-1.716l1.8,1.8,3.838-3.838c.784-.784,1.854-.982,2.394-.443S652.443,1952.536,651.66,1953.319Z" transform="translate(-637.999 -1944.999)" fill="#e67624"/>
</svg>
